<?xml version="1.0" encoding="UTF-8" standalone="no"?>
<svg
   width="32"
   height="32"
   fill="#ffffff"
   version="1.1"
   viewBox="0 0 21.333 21.333"
   id="svg6"
   sodipodi:docname="app-dark.svg"
   inkscape:version="1.2.2 (b0a8486541, 2022-12-01)"
   xmlns:inkscape="http://www.inkscape.org/namespaces/inkscape"
   xmlns:sodipodi="http://sodipodi.sourceforge.net/DTD/sodipodi-0.dtd"
   xmlns="http://www.w3.org/2000/svg"
   xmlns:svg="http://www.w3.org/2000/svg">
  <defs
     id="defs10" />
  <sodipodi:namedview
     id="namedview8"
     pagecolor="#ffffff"
     bordercolor="#000000"
     borderopacity="0.25"
     inkscape:showpageshadow="2"
     inkscape:pageopacity="0.0"
     inkscape:pagecheckerboard="true"
     inkscape:deskcolor="#d1d1d1"
     showgrid="false"
     inkscape:zoom="5.7763505"
     inkscape:cx="-64.487084"
     inkscape:cy="32.113702"
     inkscape:window-width="1920"
     inkscape:window-height="1008"
     inkscape:window-x="0"
     inkscape:window-y="0"
     inkscape:window-maximized="1"
     inkscape:current-layer="svg6" />
  <path
     d="M 0,0 H 24 V 24 H 0 Z"
     fill="none"
     id="path2"
     style="display:inline" />
  <path
     d="M 17.6,2 H 3.733 C 2.86633,2 1.9997,2.74337 1.9997,3.6519 V 6.138 c 0,0.59469 0.37267,1.1068 0.86667,1.3959 v 9.3334 c 0,0.90856 0.95333,1.6519 1.7333,1.6519 h 12.133 c 0.78,0 1.7333,-0.74336 1.7333,-1.6519 V 7.5339 c 0.494,-0.28909 0.86667,-0.80118 0.86667,-1.3959 V 3.6519 C 19.33264,2.74334 18.46597,2 17.59934,2 Z m -4.3333,9.9115 h -5.2 v -1.6519 h 5.2 z M 17.6,6.1298 H 3.733 V 3.6519 L 17.6,3.635381 Z"
     stroke-width="0.84607"
     id="path4"
     style="display:inline;fill:#000000;fill-opacity:1" />
</svg>
