<svg width="32" height="32" fill="#ffffff" version="1.1" viewBox="0 0 21.333 21.333" xmlns="http://www.w3.org/2000/svg"><path d="m0 0h24v24h-24z" fill="none"/><path d="m17.6 2h-13.867c-0.86667 0-1.7333 0.74337-1.7333 1.6519v2.4861c0 0.59469 0.37267 1.1068 0.86667 1.3959v9.3334c0 0.90856 0.95333 1.6519 1.7333 1.6519h12.133c0.78 0 1.7333-0.74336 1.7333-1.6519v-9.3334c0.494-0.28909 0.86667-0.80118 0.86667-1.3959v-2.4861c0-0.90856-0.86667-1.6519-1.7333-1.6519zm-4.3333 9.9115h-5.2v-1.6519h5.2zm4.3333-5.7817h-13.867v-2.4779l13.867-0.016519z" stroke-width=".84607"/></svg>
